<svg width="35" height="19" viewBox="0 0 35 19" fill="none"
    xmlns="http://www.w3.org/2000/svg">
    <path d="M17.5 0C17.7901 0 18.0683 0.115234 18.2734 0.320352C18.4785 0.52547 18.5938 0.803669 18.5938 1.09375V5.46875C18.5938 5.75883 18.4785 6.03703 18.2734 6.24215C18.0683 6.44727 17.7901 6.5625 17.5 6.5625C17.2099 6.5625 16.9317 6.44727 16.7266 6.24215C16.5215 6.03703 16.4062 5.75883 16.4062 5.46875V1.09375C16.4062 0.803669 16.5215 0.52547 16.7266 0.320352C16.9317 0.115234 17.2099 0 17.5 0ZM35 17.5C35 17.7901 34.8848 18.0683 34.6796 18.2734C34.4745 18.4785 34.1963 18.5938 33.9062 18.5938H29.5312C29.2412 18.5938 28.963 18.4785 28.7579 18.2734C28.5527 18.0683 28.4375 17.7901 28.4375 17.5C28.4375 17.2099 28.5527 16.9317 28.7579 16.7266C28.963 16.5215 29.2412 16.4062 29.5312 16.4062H33.9062C34.1963 16.4062 34.4745 16.5215 34.6796 16.7266C34.8848 16.9317 35 17.2099 35 17.5ZM5.46875 18.5938C5.75883 18.5938 6.03703 18.4785 6.24215 18.2734C6.44727 18.0683 6.5625 17.7901 6.5625 17.5C6.5625 17.2099 6.44727 16.9317 6.24215 16.7266C6.03703 16.5215 5.75883 16.4062 5.46875 16.4062H1.09375C0.803669 16.4062 0.52547 16.5215 0.320352 16.7266C0.115234 16.9317 0 17.2099 0 17.5C0 17.7901 0.115234 18.0683 0.320352 18.2734C0.52547 18.4785 0.803669 18.5938 1.09375 18.5938H5.46875ZM29.8747 5.12531C30.0797 5.33042 30.1949 5.60857 30.1949 5.89859C30.1949 6.18862 30.0797 6.46677 29.8747 6.67188L26.7816 9.765C26.6807 9.86946 26.56 9.95279 26.4265 10.0101C26.2931 10.0674 26.1496 10.0976 26.0043 10.0989C25.8591 10.1001 25.7151 10.0725 25.5807 10.0175C25.4463 9.96247 25.3241 9.88125 25.2214 9.77856C25.1187 9.67586 25.0375 9.55374 24.9825 9.41932C24.9275 9.28491 24.8999 9.14088 24.9011 8.99566C24.9024 8.85043 24.9326 8.70691 24.9899 8.57346C25.0472 8.44002 25.1305 8.31933 25.235 8.21844L28.3281 5.12531C28.5332 4.92027 28.8114 4.80508 29.1014 4.80508C29.3914 4.80508 29.6696 4.92027 29.8747 5.12531ZM8.21844 9.765C8.42472 9.96424 8.701 10.0745 8.98778 10.072C9.27456 10.0695 9.54889 9.95447 9.75168 9.75168C9.95447 9.54889 10.0695 9.27456 10.072 8.98778C10.0745 8.701 9.96424 8.42472 9.765 8.21844L6.67188 5.12531C6.57098 5.02085 6.45029 4.93752 6.31685 4.8802C6.18341 4.82288 6.03988 4.79271 5.89466 4.79144C5.74943 4.79018 5.60541 4.81786 5.47099 4.87285C5.33657 4.92785 5.21445 5.00906 5.11176 5.11176C5.00906 5.21445 4.92785 5.33657 4.87285 5.47099C4.81786 5.60541 4.79018 5.74943 4.79144 5.89466C4.79271 6.03989 4.82288 6.18341 4.8802 6.31685C4.93752 6.45029 5.02085 6.57098 5.12531 6.67188L8.21844 9.765ZM17.5 8.75C15.1794 8.75 12.9538 9.67187 11.3128 11.3128C9.67187 12.9538 8.75 15.1794 8.75 17.5C8.75 17.7901 8.86523 18.0683 9.07035 18.2734C9.27547 18.4785 9.55367 18.5938 9.84375 18.5938H25.1562C25.4463 18.5938 25.7245 18.4785 25.9296 18.2734C26.1348 18.0683 26.25 17.7901 26.25 17.5C26.25 15.1794 25.3281 12.9538 23.6872 11.3128C22.0462 9.67187 19.8206 8.75 17.5 8.75ZM17.5 10.9375C19.0512 10.937 20.5525 11.486 21.7374 12.4871C22.9223 13.4882 23.7143 14.8767 23.9728 16.4062H11.025C11.2836 14.8764 12.0759 13.4876 13.2613 12.4864C14.4466 11.4853 15.9484 10.9365 17.5 10.9375Z" fill="#EB6F4C"/>
</svg>
